<?xml version="1.0" encoding="UTF-8" standalone="no"?>
<!DOCTYPE svg PUBLIC "-//W3C//DTD SVG 20010904//EN"
              "http://www.w3.org/TR/2001/REC-SVG-20010904/DTD/svg10.dtd">

<svg xmlns="http://www.w3.org/2000/svg"
     width="2.8125in" height="2.8125in"
     viewBox="0 0 270 270">
  <path id="選択範囲"
        fill="#000000"  
        d="M 93.00,101.00
           C 94.64,95.37 100.64,85.56 103.70,80.00
             103.70,80.00 120.68,49.00 120.68,49.00
             123.87,43.85 126.92,35.21 134.00,35.21
             141.72,35.21 144.76,44.41 147.86,50.00
             147.86,50.00 164.86,81.00 164.86,81.00
             168.08,86.77 173.26,94.93 175.00,101.00
             175.00,101.00 159.00,101.00 159.00,101.00
             151.41,100.87 151.14,97.22 147.58,91.00
             143.52,83.91 137.73,74.47 135.00,67.00
             135.00,67.00 133.00,67.00 133.00,67.00
             133.00,67.00 115.00,101.00 115.00,101.00
             115.00,101.00 93.00,101.00 93.00,101.00 Z
           M 66.00,91.56
           C 73.26,90.29 79.95,91.29 84.26,98.02
             89.83,106.69 83.13,120.50 74.98,122.35
             71.96,123.04 68.80,122.22 66.00,121.05
             63.79,120.12 60.35,118.21 58.79,116.39
             54.84,111.80 52.66,96.32 66.00,91.56 Z
           M 192.00,91.65
           C 198.14,90.38 203.92,90.32 208.78,94.82
             217.37,102.79 212.81,117.58 202.00,121.21
             192.23,124.49 188.95,121.07 184.42,113.00
             182.82,110.14 181.20,107.45 181.57,104.04
             182.16,98.63 187.30,93.67 192.00,91.65 Z
           M 88.00,110.00
           C 88.00,110.00 90.65,105.99 90.65,105.99
             90.65,105.99 107.00,105.00 107.00,105.00
             107.00,105.00 160.00,105.00 160.00,105.00
             160.00,105.00 177.58,106.02 177.58,106.02
             177.58,106.02 180.00,110.00 180.00,110.00
             178.33,110.06 176.60,110.00 175.00,110.60
             166.31,113.86 171.66,119.87 167.00,128.00
             165.48,126.34 164.06,124.44 161.90,123.59
             159.29,122.58 142.97,123.00 139.00,123.00
             139.00,123.00 113.00,123.00 113.00,123.00
             111.00,123.00 107.87,122.89 106.04,123.60
             101.46,125.39 97.03,135.63 94.58,140.00
             94.58,140.00 68.00,188.00 68.00,188.00
             68.00,188.00 157.00,188.00 157.00,188.00
             157.00,188.00 145.00,210.00 145.00,210.00
             145.00,210.00 140.00,208.00 140.00,208.00
             140.82,206.04 142.27,203.10 142.20,201.00
             141.98,195.13 134.30,190.41 129.51,194.71
             125.35,198.45 126.20,203.52 128.00,208.00
             128.00,208.00 122.00,211.00 122.00,211.00
             115.69,206.54 107.45,208.00 100.00,207.90
             100.00,207.90 53.00,207.90 53.00,207.90
             51.42,208.00 48.45,208.06 47.15,207.90
             35.18,204.68 44.06,190.97 47.15,185.00
             47.15,185.00 67.70,148.00 67.70,148.00
             67.70,148.00 83.00,121.00 83.00,121.00
             85.43,122.66 89.05,125.87 92.00,125.86
             96.06,125.85 102.39,120.22 98.26,114.06
             95.55,110.01 92.34,110.06 88.00,110.00 Z
           M 185.00,121.00
           C 187.31,123.91 190.00,128.11 189.51,132.00
             189.11,135.11 184.20,142.89 182.42,146.00
             182.42,146.00 167.85,172.00 167.85,172.00
             161.51,183.12 162.22,183.94 154.00,184.00
             154.00,184.00 139.00,184.00 139.00,184.00
             139.00,184.00 157.69,151.00 157.69,151.00
             157.69,151.00 170.95,128.32 170.95,128.32
             170.95,128.32 179.00,125.83 179.00,125.83
             179.00,125.83 185.00,121.00 185.00,121.00 Z
           M 193.00,136.00
           C 196.70,139.71 200.62,148.11 203.30,153.00
             203.30,153.00 220.30,184.00 220.30,184.00
             222.78,188.51 228.33,196.86 227.81,201.98
             227.16,208.43 220.85,207.99 216.00,208.00
             216.00,208.00 152.00,208.00 152.00,208.00
             153.74,203.96 159.97,191.06 163.33,189.02
             165.37,187.78 168.65,188.00 171.00,188.00
             178.81,187.98 191.90,188.73 199.00,187.00
             199.00,187.00 188.55,167.00 188.55,167.00
             188.55,167.00 183.43,155.00 183.43,155.00
             183.43,155.00 193.00,136.00 193.00,136.00 Z
           M 101.00,137.00
           C 101.00,137.00 103.00,137.00 103.00,137.00
             103.00,137.00 110.77,151.00 110.77,151.00
             110.77,151.00 117.31,164.00 117.31,164.00
             117.31,164.00 128.00,184.00 128.00,184.00
             128.00,184.00 112.00,184.00 112.00,184.00
             112.00,184.00 106.63,183.01 106.63,183.01
             106.63,183.01 96.00,165.00 96.00,165.00
             96.00,165.00 92.03,155.00 92.03,155.00
             92.03,155.00 101.00,137.00 101.00,137.00 Z
           M 129.00,210.65
           C 134.30,209.56 139.58,209.52 143.91,213.28
             153.04,221.21 149.96,235.76 139.00,239.20
             120.11,245.12 110.15,218.22 129.00,210.65 Z" />
</svg>
